<?xml version="1.0" standalone="no"?>
<!DOCTYPE svg PUBLIC "-//W3C//DTD SVG 20010904//EN"
 "http://www.w3.org/TR/2001/REC-SVG-20010904/DTD/svg10.dtd">
<svg version="1.0" xmlns="http://www.w3.org/2000/svg"
 width="512" height="512" viewBox="0 0 680.109985 667.448725"
 preserveAspectRatio="xMidYMid meet">
<metadata>Created by Svg.la</metadata>
<g transform="translate(-176.874355,849.566516) scale(0.100000,-0.100000)"
fill="#3f35d0" stroke="none">
<path d="M4870 8485 c-239 -25 -316 -38 -295 -47 15 -6 11 -7 -15 -4 -19 2
-53 0 -75 -4 -36 -7 -37 -8 -10 -10 26 -1 27 -3 10 -9 -11 -5 -28 -5 -37 0
-23 12 -48 12 -29 0 12 -8 8 -11 -15 -16 -16 -4 -51 -13 -78 -21 -59 -17 -76
-18 -56 -3 12 9 12 10 -3 5 -10 -3 -24 -6 -30 -6 -7 0 -6 -5 3 -11 11 -8 6 -9
-20 -4 -21 4 -30 3 -23 -2 9 -6 -9 -16 -52 -30 -36 -12 -62 -16 -58 -10 4 6 1
8 -8 5 -8 -3 -38 -13 -68 -23 -39 -13 -50 -20 -40 -27 10 -7 8 -8 -8 -3 -14 4
-54 -7 -109 -30 -130 -54 -294 -137 -289 -146 3 -4 0 -11 -6 -15 -8 -4 -9 -3
-5 4 10 17 1 15 -44 -8 -29 -15 -38 -25 -34 -38 5 -13 4 -14 -4 -3 -8 11 -20
8 -66 -18 -31 -18 -54 -36 -51 -41 3 -4 -3 -7 -13 -6 -9 0 -16 -4 -15 -11 2
-7 -3 -10 -11 -7 -7 3 -28 -9 -45 -26 -18 -16 -39 -30 -46 -30 -7 0 -43 -23
-81 -51 -111 -84 -144 -111 -139 -119 3 -4 -3 -14 -12 -21 -12 -10 -14 -10 -9
-1 4 6 3 12 -2 12 -13 0 -38 -31 -32 -39 3 -3 -4 -6 -15 -6 -11 0 -19 -6 -17
-13 1 -8 -1 -11 -6 -8 -12 7 -143 -114 -136 -125 3 -5 1 -8 -5 -7 -15 4 -122
-103 -114 -115 3 -6 1 -7 -4 -4 -6 4 -42 -27 -79 -69 -71 -78 -95 -114 -53
-79 l24 20 -19 -22 c-10 -12 -22 -21 -26 -20 -10 3 -70 -66 -64 -73 3 -2 10 2
15 10 9 12 10 12 5 -3 -3 -10 -6 -23 -6 -29 0 -7 -5 -6 -14 1 -11 10 -17 7
-30 -10 -8 -12 -13 -26 -10 -31 3 -5 0 -7 -8 -6 -7 2 -12 -3 -10 -9 1 -7 -3
-13 -8 -13 -11 0 -59 -74 -50 -76 3 -1 -6 -12 -20 -24 -14 -12 -19 -19 -13
-15 9 4 11 1 7 -9 -3 -9 -10 -13 -15 -10 -5 3 -5 -5 0 -19 6 -15 6 -29 -1 -38
-8 -11 -9 -10 -4 4 3 9 1 17 -5 17 -6 0 -7 5 -4 10 3 6 4 10 2 10 -3 0 -15
-17 -27 -37 -13 -23 -16 -32 -6 -24 16 14 36 7 35 -12 0 -8 -2 -8 -6 1 -4 10
-8 10 -19 1 -8 -6 -11 -16 -7 -22 3 -6 1 -7 -5 -3 -6 3 -17 -4 -24 -16 -13
-22 -14 -29 -17 -56 0 -7 -6 -10 -12 -6 -8 4 -7 9 2 16 11 8 11 9 -1 5 -8 -2
-14 -10 -12 -17 1 -7 -4 -23 -13 -36 -8 -13 -15 -28 -15 -33 0 -5 -5 -22 -11
-38 -8 -22 -12 -25 -20 -13 -8 12 -9 9 -5 -9 3 -17 -4 -35 -24 -61 -16 -21
-27 -40 -23 -44 3 -3 1 -6 -5 -6 -6 0 -9 -7 -5 -17 4 -10 2 -14 -4 -10 -5 3
-17 -10 -27 -30 -14 -29 -15 -38 -4 -44 10 -7 8 -9 -6 -9 -12 0 -16 -5 -12
-15 3 -8 1 -15 -5 -15 -6 0 -8 -7 -5 -16 3 -8 2 -13 -3 -10 -5 3 -13 -11 -19
-32 -6 -20 -24 -75 -41 -122 -18 -47 -30 -93 -27 -103 2 -10 0 -14 -6 -11 -7
5 -9 -2 -4 -20 5 -20 4 -26 -5 -20 -9 5 -10 1 -7 -14 4 -12 3 -20 -2 -17 -4 2
-14 -30 -23 -73 -28 -140 -34 -174 -40 -262 -1 -19 -5 -39 -8 -45 -3 -5 -5
-29 -4 -52 0 -24 -2 -43 -7 -43 -4 0 -7 -10 -7 -22 1 -13 -2 -34 -5 -48 -11
-44 -9 -451 3 -585 22 -241 67 -474 132 -680 53 -167 69 -206 80 -199 5 3 6
-1 3 -9 -10 -26 113 -294 213 -467 105 -179 185 -293 195 -278 8 10 9 9 4 -4
-6 -19 99 -169 116 -165 6 1 12 -6 13 -16 2 -9 36 -53 75 -97 67 -74 92 -97
74 -68 -4 7 -3 8 5 4 6 -4 9 -11 6 -15 -5 -9 33 -47 44 -43 3 1 6 -4 6 -10 1
-7 7 -12 15 -10 8 2 12 0 7 -4 -4 -4 3 -18 15 -31 17 -19 24 -21 37 -10 14 10
14 10 3 -4 -11 -14 -3 -25 60 -80 40 -35 82 -72 93 -82 32 -30 193 -149 276
-204 169 -114 421 -249 441 -237 7 5 8 2 3 -6 -6 -10 -3 -12 13 -8 12 4 20 2
17 -3 -8 -12 53 -41 73 -35 9 3 24 1 32 -5 12 -8 9 -9 -10 -4 -22 5 -23 4 -7
-5 10 -7 25 -9 33 -6 8 3 13 2 10 -3 -7 -10 -9 -9 154 -68 81 -29 133 -42 150
-38 16 3 20 2 12 -3 -22 -15 325 -97 366 -87 15 4 21 2 17 -4 -6 -11 4 -14
115 -30 190 -27 322 -33 559 -28 256 5 323 12 556 53 217 39 360 75 344 85 -9
7 -5 7 14 3 18 -4 27 -2 27 6 0 7 7 10 16 6 9 -3 12 -2 9 5 -4 6 3 8 22 4 22
-5 25 -4 13 4 -12 9 -9 10 12 5 21 -5 29 -2 34 11 4 9 10 13 13 8 8 -13 202
57 194 70 -3 6 -1 7 6 3 16 -10 141 43 141 59 0 7 7 16 16 19 8 3 12 2 9 -4
-8 -13 -2 -13 29 1 14 7 23 17 19 22 -4 6 0 8 10 4 10 -4 16 -2 14 5 -1 6 4
13 12 16 9 3 11 0 6 -8 -12 -19 58 19 78 44 10 11 16 15 12 9 -4 -9 -1 -11 9
-7 9 3 14 10 11 15 -7 11 33 32 45 24 6 -4 9 -1 8 5 -2 7 8 16 22 21 24 9 24
8 6 -6 -11 -8 -15 -15 -9 -15 6 0 21 12 33 28 12 15 18 21 15 14 -5 -10 1 -9
24 3 18 9 35 23 38 30 3 8 9 13 13 10 12 -7 105 60 105 76 0 8 7 14 15 14 21
0 91 45 85 55 -3 4 3 14 12 21 12 10 14 10 9 1 -4 -6 -3 -12 3 -12 11 0 26 20
26 34 0 5 8 10 19 12 24 3 77 54 69 67 -3 6 -1 7 5 3 6 -4 50 28 99 73 124
112 156 148 147 162 -4 7 -3 9 3 6 13 -8 55 31 47 44 -3 5 0 8 8 7 7 -2 12 3
11 9 -2 7 3 12 10 10 6 -1 11 4 9 11 -1 8 2 11 7 8 14 -9 60 54 54 73 -4 12
-3 13 5 3 7 -10 25 7 73 68 35 44 64 89 64 98 1 9 6 16 12 15 20 -4 144 191
136 215 -3 6 3 12 12 12 11 0 15 5 11 16 -4 10 -2 13 6 8 8 -5 9 -2 5 10 -5
11 -3 15 5 10 8 -5 9 -2 5 9 -3 9 -1 19 5 23 7 5 8 2 3 -7 -5 -10 -5 -11 3 -4
22 21 163 311 158 328 -2 9 0 15 4 12 12 -7 23 32 14 46 -4 7 -3 9 4 6 18 -12
143 363 146 440 0 24 4 36 9 30 5 -7 7 -1 4 15 -2 15 -1 25 3 23 16 -10 73
349 64 404 -3 23 -2 31 4 23 13 -20 22 94 22 298 0 356 -43 630 -157 999 -18
60 -28 79 -35 70 -7 -10 -8 -8 -3 8 18 65 -329 761 -367 737 -7 -4 -8 -2 -4 4
8 14 -138 218 -153 214 -6 -1 -10 4 -9 10 2 7 -3 12 -10 10 -8 -1 -11 2 -7 8
8 12 -65 101 -77 94 -5 -3 -8 -2 -7 3 3 19 -2 33 -12 33 -5 0 -7 -5 -3 -12 5
-7 3 -8 -5 -4 -7 5 -10 10 -7 13 10 10 -15 44 -26 37 -6 -4 -8 -3 -5 3 7 11
-30 50 -42 46 -3 -2 -6 0 -6 5 0 16 -17 32 -27 26 -6 -4 -8 -3 -5 3 4 6 -1 19
-9 29 -14 17 -15 17 -10 2 8 -25 3 -23 -38 18 -45 45 -47 58 -3 19 17 -17 7
-4 -23 28 -30 31 -59 56 -65 53 -13 -4 -34 11 -55 39 -8 11 1 7 19 -10 19 -16
31 -24 27 -17 -14 24 -188 162 -197 156 -5 -3 -8 0 -7 8 2 7 -6 13 -17 13 -11
0 -20 6 -20 12 0 23 -229 178 -247 167 -7 -4 -8 -3 -4 4 20 32 -602 336 -651
318 -8 -3 -12 -2 -8 3 7 12 -61 35 -76 25 -7 -4 -9 -3 -5 4 7 11 -27 23 -214
70 -145 38 -363 75 -400 70 -16 -2 -27 -1 -25 2 15 24 -514 35 -705 15z m235
-5 c-3 -5 -12 -10 -18 -10 -7 0 -6 4 3 10 19 12 23 12 15 0z m175 2 c0 -5 -7
-9 -15 -9 -8 0 -12 4 -9 9 3 4 9 8 15 8 5 0 9 -4 9 -8z m-332 -9 c-10 -2 -28
-2 -40 0 -13 2 -5 4 17 4 22 1 32 -1 23 -4z m-291 -29 c-3 -3 -12 -4 -19 -1
-8 3 -5 6 6 6 11 1 17 -2 13 -5z m1150 -50 c-3 -3 -12 -4 -19 -1 -8 3 -5 6 6
6 11 1 17 -2 13 -5z m-289 -14 c39 0 72 -4 72 -8 0 -5 15 -7 33 -5 27 3 29 2
12 -7 -18 -9 -17 -10 8 -7 15 3 27 0 27 -6 0 -5 14 -7 30 -5 17 3 30 0 30 -5
0 -5 20 -7 48 -3 34 4 42 3 27 -4 -16 -8 -13 -9 17 -7 20 2 34 -1 32 -5 -6 -9
15 -12 60 -9 16 1 40 -6 54 -15 13 -9 21 -11 18 -5 -4 6 0 11 9 11 9 0 14 -4
10 -9 -3 -5 -1 -12 5 -16 5 -3 10 -2 10 4 0 6 7 8 15 5 8 -4 12 -11 8 -17 -4
-6 3 -8 21 -3 21 5 26 4 20 -6 -6 -10 -3 -9 9 1 16 12 22 8 18 -13 -1 -5 6 -6
15 -2 23 9 56 -3 48 -16 -5 -7 0 -9 14 -6 12 4 22 2 22 -2 0 -4 10 -6 22 -2
13 3 19 1 15 -5 -4 -6 4 -14 17 -17 13 -3 32 -9 42 -13 12 -4 15 -3 10 5 -5 8
-2 10 8 6 9 -3 13 -11 10 -16 -4 -6 2 -7 16 -3 17 5 21 4 15 -6 -6 -9 -4 -11
8 -6 9 3 17 1 20 -6 2 -6 17 -12 33 -13 16 -1 33 -3 37 -3 5 -1 5 -5 2 -11 -3
-6 1 -7 9 -4 9 4 16 1 16 -6 0 -7 7 -10 16 -6 8 3 13 2 10 -3 -3 -5 1 -12 10
-15 10 -4 13 -2 9 7 -4 6 0 4 9 -7 8 -10 19 -15 24 -12 5 3 20 -3 33 -15 12
-11 29 -17 36 -14 8 2 12 1 9 -3 -7 -12 103 -64 116 -56 6 4 8 3 5 -3 -8 -13
137 -93 162 -88 13 2 18 -1 15 -9 -3 -8 10 -22 31 -35 20 -11 33 -15 30 -9 -4
7 2 2 14 -12 11 -14 24 -25 30 -25 6 0 16 -7 23 -16 21 -27 90 -69 102 -62 6
3 8 3 4 -2 -4 -4 19 -26 50 -49 31 -24 63 -50 71 -59 7 -9 18 -14 24 -10 5 3
7 1 4 -4 -6 -10 19 -28 34 -25 4 1 17 -11 30 -26 l24 -27 -25 20 c-14 11 13
-16 59 -60 47 -44 89 -79 94 -77 5 1 6 -1 3 -6 -5 -9 44 -63 61 -65 4 -1 7 -5
6 -9 -1 -3 13 -20 32 -37 20 -17 36 -34 38 -38 1 -5 5 -7 10 -5 4 1 6 -4 5
-10 -2 -7 3 -12 10 -10 8 1 11 -2 8 -7 -6 -9 88 -131 100 -131 3 0 -16 26 -41
58 l-48 57 51 -55 c28 -30 48 -58 45 -63 -7 -11 17 -38 28 -31 5 3 6 -1 3 -9
-3 -8 0 -18 7 -23 8 -5 10 -3 4 6 -17 27 14 -1 36 -33 l23 -32 -29 25 c-28 25
-28 24 5 -22 18 -26 37 -45 43 -41 6 3 7 1 3 -5 -6 -9 60 -120 96 -162 7 -8
13 -19 14 -25 1 -20 27 -65 37 -65 6 0 8 -3 4 -6 -8 -9 21 -64 34 -64 6 0 8
-4 5 -8 -6 -10 69 -164 76 -157 2 2 4 -4 5 -13 1 -9 31 -96 67 -192 62 -168
126 -389 126 -438 0 -13 4 -20 10 -17 5 3 7 0 5 -7 -3 -8 4 -74 15 -148 12
-74 24 -190 27 -257 4 -90 9 -123 19 -123 7 0 14 3 17 8 2 4 2 1 0 -6 -1 -8
-3 -23 -4 -35 -1 -20 -2 -20 -9 3 -7 22 -8 21 -11 -15 -5 -76 -12 -300 -11
-369 0 -46 -3 -65 -9 -55 -7 12 -9 12 -9 -1 0 -9 6 -22 13 -29 8 -9 8 -12 0
-7 -12 7 -17 -5 -28 -68 -4 -27 -3 -41 7 -47 10 -7 10 -9 -2 -9 -12 0 -20 -26
-34 -102 -10 -57 -24 -121 -31 -143 -7 -22 -22 -74 -34 -115 -41 -138 -112
-313 -192 -472 -44 -87 -77 -158 -73 -158 5 0 0 -6 -11 -13 -10 -8 -15 -19
-11 -25 4 -7 2 -12 -3 -12 -6 0 -11 -9 -11 -20 0 -11 -6 -19 -12 -17 -7 1 -12
-6 -12 -16 1 -10 -1 -16 -4 -13 -3 3 -10 -3 -16 -13 -27 -46 -139 -204 -196
-275 -34 -43 -59 -80 -56 -84 9 -8 -35 -53 -45 -46 -5 3 -6 -3 -2 -12 4 -11 2
-15 -4 -11 -13 8 -36 -17 -25 -28 4 -5 2 -5 -4 -2 -11 6 -80 -57 -78 -71 2
-12 -48 -72 -59 -72 -5 0 -2 10 9 23 10 12 -3 2 -30 -23 -26 -25 -52 -56 -57
-69 -6 -15 -15 -21 -25 -17 -8 3 -13 2 -10 -3 3 -4 -11 -23 -31 -42 -20 -19
-33 -28 -29 -21 15 25 -11 10 -64 -40 -30 -27 -49 -47 -41 -43 10 6 12 4 7 -4
-5 -7 -14 -10 -22 -7 -8 3 -13 0 -11 -7 1 -7 -7 -12 -18 -12 -11 0 -20 -5 -20
-10 0 -15 -15 -35 -26 -35 -6 0 -7 6 -3 13 4 7 3 9 -2 4 -5 -5 -9 -14 -9 -20
0 -7 -7 -12 -16 -12 -9 0 -27 -8 -40 -18 -13 -10 -18 -15 -11 -12 6 3 12 2 12
-3 0 -5 -12 -15 -27 -23 -40 -19 -50 -22 -33 -9 13 10 13 11 0 7 -8 -2 -15 -9
-15 -15 0 -16 -157 -113 -172 -107 -7 2 -27 -9 -44 -26 -17 -17 -37 -28 -45
-25 -8 3 -13 0 -11 -7 1 -7 -8 -12 -20 -11 -12 0 -20 -3 -18 -7 3 -3 -9 -12
-25 -19 -16 -7 -27 -17 -23 -23 3 -6 1 -7 -5 -3 -6 4 -30 -3 -52 -14 -59 -30
-92 -42 -85 -30 3 6 -1 7 -9 4 -9 -3 -14 -10 -11 -14 8 -13 -210 -98 -222 -86
-3 3 -12 -2 -18 -11 -8 -10 -26 -17 -48 -17 -21 0 -33 -4 -30 -10 4 -5 -1 -7
-11 -3 -23 9 -68 -2 -60 -15 4 -6 -2 -7 -16 -3 -14 5 -20 3 -16 -3 3 -6 -8
-15 -26 -21 -66 -20 -201 -51 -206 -46 -3 3 3 5 13 5 10 0 16 3 13 6 -3 3 -23
2 -44 -2 -31 -6 -35 -9 -19 -14 14 -5 9 -8 -23 -14 -24 -3 -47 -4 -53 -1 -5 3
-46 0 -91 -7 -70 -10 -78 -14 -53 -20 18 -4 6 -5 -30 -3 -68 5 -169 -5 -143
-14 42 -15 -522 -3 -655 13 -77 10 -145 15 -153 12 -8 -3 -14 -2 -14 3 0 12
-236 55 -287 52 -23 -1 -44 3 -48 10 -6 8 2 9 26 4 60 -13 26 2 -54 24 -43 12
-83 18 -89 15 -7 -4 -8 -2 -4 4 4 7 2 12 -4 12 -6 0 -72 23 -146 51 -74 27
-140 47 -146 43 -7 -4 -10 -3 -5 1 10 12 -281 157 -296 149 -7 -4 -9 -3 -4 1
8 10 -43 46 -55 39 -4 -3 -8 -1 -8 5 0 14 -68 53 -80 46 -6 -4 -9 -1 -8 7 2 7
-5 12 -14 12 -10 -1 -16 2 -13 6 7 11 -46 44 -69 42 -10 0 -16 2 -12 5 7 8
-13 33 -26 33 -6 0 -4 -8 3 -17 11 -15 10 -15 -8 1 -13 10 -20 22 -18 27 7 10
-52 52 -64 45 -4 -3 -16 3 -26 14 -10 11 -15 20 -10 20 4 0 -4 9 -18 20 -14
11 -30 19 -35 18 -14 -4 -73 42 -67 51 6 11 -73 83 -84 77 -4 -3 -21 9 -37 27
l-29 32 35 -30 35 -30 -34 37 c-19 21 -39 34 -45 31 -6 -3 -8 -2 -3 2 10 12
-23 46 -37 38 -6 -3 -8 -2 -3 2 8 10 -52 77 -63 70 -4 -2 -18 8 -31 23 -22 25
-22 25 -1 8 12 -11 22 -15 22 -9 0 11 -55 65 -67 65 -4 -1 -7 5 -5 12 1 7 -10
23 -25 37 l-28 24 20 -25 20 -25 -22 19 c-12 10 -21 22 -20 26 1 5 -15 31 -35
59 -26 34 -43 48 -53 45 -14 -6 -21 12 -16 39 3 16 -34 54 -49 50 -12 -4 -13
-3 -1 5 11 8 9 15 -9 40 -13 17 -26 29 -30 27 -4 -3 -14 3 -21 13 -13 15 -12
16 4 3 9 -7 17 -10 17 -5 -1 14 -26 44 -32 38 -4 -3 -5 3 -5 13 1 10 -4 17
-10 16 -7 -2 -12 0 -12 5 3 20 -2 32 -13 26 -6 -4 -8 -3 -4 4 10 17 -146 299
-164 295 -11 -4 -12 -2 -2 4 10 7 10 17 0 43 -10 30 -12 32 -20 14 -7 -16 -8
-15 -4 5 3 14 -14 72 -44 145 -27 67 -56 149 -66 183 -10 36 -21 60 -27 56 -6
-3 -7 -1 -3 5 10 17 -24 133 -37 125 -6 -3 -7 -1 -3 5 4 7 -2 56 -13 110 -11
53 -28 147 -37 207 -10 61 -20 112 -23 115 -3 3 -7 131 -9 285 -3 282 2 351
48 649 5 33 6 65 3 70 -4 6 -2 8 2 3 9 -8 77 238 79 285 1 14 4 24 7 22 8 -4
49 123 45 139 -1 7 -1 8 2 3 5 -10 72 148 75 177 1 9 5 17 9 17 4 0 4 7 1 17
-4 10 -2 14 4 10 10 -7 58 88 68 137 3 15 9 26 12 22 4 -3 17 12 30 35 22 40
32 69 13 39 -5 -8 -10 -10 -10 -4 0 6 7 17 15 24 8 7 12 16 9 21 -3 5 1 9 8 9
7 0 14 12 15 26 0 15 8 34 18 43 15 15 16 15 9 -4 -3 -11 9 3 29 30 19 28 32
56 29 64 -3 9 -1 12 6 7 7 -4 10 1 7 15 -3 15 0 19 10 16 14 -6 98 96 98 120
0 7 2 11 5 9 8 -9 54 53 47 64 -4 6 -1 9 5 8 6 -2 23 12 37 30 22 27 23 31 7
26 -10 -4 -16 -4 -12 0 3 4 13 8 21 10 19 2 223 225 219 238 -1 5 1 7 6 4 5
-3 35 20 68 50 32 30 102 90 154 134 52 43 101 88 108 100 7 11 16 18 21 16
12 -8 116 69 113 83 -1 7 2 10 8 6 5 -3 63 25 127 64 65 38 135 77 155 87 20
9 35 21 32 26 -3 4 2 5 10 2 9 -3 16 -2 16 4 0 5 11 13 25 16 14 4 25 11 25
17 0 6 4 8 8 5 4 -2 37 9 72 24 36 16 71 30 78 30 7 0 10 5 6 12 -4 6 -3 8 3
5 12 -8 117 29 121 43 2 6 7 8 11 5 13 -7 141 37 135 46 -3 5 1 6 9 3 21 -8
99 15 92 26 -3 6 0 7 7 5 8 -3 62 6 121 20 59 14 118 25 133 25 14 0 23 4 20
8 -3 5 7 7 23 4 17 -2 32 2 40 12 8 9 19 16 25 16 6 0 4 -5 -4 -11 -12 -8 -10
-9 10 -5 14 3 55 9 92 12 37 4 66 10 63 13 -2 4 146 6 328 4 183 -2 365 -4
405 -3z m507 0 c4 -7 -3 -8 -22 -4 -38 9 -42 14 -10 14 14 0 29 -5 32 -10z
m-2000 -100 c-3 -5 -14 -10 -23 -10 -15 0 -15 2 -2 10 20 13 33 13 25 0z m212
-6 c-3 -3 -12 -4 -19 -1 -8 3 -5 6 6 6 11 1 17 -2 13 -5z m-331 -33 c-6 -10
-66 -33 -66 -26 0 3 15 11 33 19 40 18 39 18 33 7z m2394 -11 c0 -5 -2 -10 -4
-10 -3 0 -8 5 -11 10 -3 6 -1 10 4 10 6 0 11 -4 11 -10z m210 -80 c0 -5 -2
-10 -4 -10 -3 0 -8 5 -11 10 -3 6 -1 10 4 10 6 0 11 -4 11 -10z m195 -30 c3
-6 -1 -7 -9 -4 -18 7 -21 14 -7 14 6 0 13 -4 16 -10z m25 -84 c0 -2 -7 -7 -16
-10 -8 -3 -12 -2 -9 4 6 10 25 14 25 6z m-3299 -34 c-5 -10 -20 -18 -32 -19
-21 -2 -21 -1 6 17 37 24 38 24 26 2z m3364 -12 c3 -5 1 -10 -4 -10 -6 0 -11
5 -11 10 0 6 2 10 4 10 3 0 8 -4 11 -10z m281 -97 c-7 -7 -26 7 -26 19 0 6 6
6 15 -2 9 -7 13 -15 11 -17z m-3846 -20 c0 -5 -13 -17 -28 -27 l-27 -19 24 26
c26 28 31 32 31 20z m3850 -28 c11 -13 10 -14 -4 -9 -9 3 -16 10 -16 15 0 13
6 11 20 -6z m55 5 c3 -5 1 -10 -4 -10 -6 0 -11 5 -11 10 0 6 2 10 4 10 3 0 8
-4 11 -10z m242 -183 c4 -6 -14 6 -40 27 -26 21 -47 40 -47 43 0 7 78 -56 87
-70z m-4487 -71 c0 -2 -7 -7 -16 -10 -8 -3 -12 -2 -9 4 6 10 25 14 25 6z m-88
-68 c-7 -7 -12 -8 -12 -2 0 14 12 26 19 19 2 -3 -1 -11 -7 -17z m-174 -168
c-7 -10 -14 -17 -17 -15 -4 4 18 35 25 35 2 0 -1 -9 -8 -20z m-205 -290 c-15
-26 -33 -40 -33 -25 0 6 42 55 47 55 2 0 -4 -13 -14 -30z m63 -28 c-18 -16
-18 -16 -6 6 6 13 14 21 18 18 3 -4 -2 -14 -12 -24z m-36 -53 c-7 -11 -14 -18
-17 -15 -3 3 0 12 7 21 18 21 23 19 10 -6z m-90 -8 c-5 -11 -15 -23 -21 -27
-6 -3 -3 5 6 20 20 30 30 35 15 7z m-120 -211 c0 -5 -4 -10 -10 -10 -5 0 -10
5 -10 10 0 6 5 10 10 10 6 0 10 -4 10 -10z m-98 -192 c-7 -7 -12 -8 -12 -2 0
14 12 26 19 19 2 -3 -1 -11 -7 -17z m-32 -55 c-11 -17 -11 -17 -6 0 3 10 6 24
7 30 0 9 2 9 5 0 3 -7 0 -20 -6 -30z m6180 -84 c0 -6 -4 -7 -10 -4 -5 3 -10
11 -10 16 0 6 5 7 10 4 6 -3 10 -11 10 -16z m65 -149 c3 -5 1 -10 -4 -10 -6 0
-11 5 -11 10 0 6 2 10 4 10 3 0 8 -4 11 -10z m-6414 -107 c-12 -20 -14 -14 -5
12 4 9 9 14 11 11 3 -2 0 -13 -6 -23z m6487 -138 c-3 -3 -9 2 -12 12 -6 14 -5
15 5 6 7 -7 10 -15 7 -18z m-6518 -81 c0 -8 -19 -13 -24 -6 -3 5 1 9 9 9 8 0
15 -2 15 -3z m6558 -69 c-3 -3 -9 2 -12 12 -6 14 -5 15 5 6 7 -7 10 -15 7 -18z
m-6641 -157 c-3 -8 -6 -5 -6 6 -1 11 2 17 5 13 3 -3 4 -12 1 -19z m0 -170 c-3
-8 -6 -5 -6 6 -1 11 2 17 5 13 3 -3 4 -12 1 -19z m-17 -103 c0 -8 -2 -15 -4
-15 -2 0 -6 7 -10 15 -3 8 -1 15 4 15 6 0 10 -7 10 -15z m-17 -75 c3 -11 1
-18 -4 -14 -5 3 -9 12 -9 20 0 20 7 17 13 -6z m7 -50 c0 -5 -5 -10 -11 -10 -5
0 -7 5 -4 10 3 6 8 10 11 10 2 0 4 -4 4 -10z m-7 -163 c3 -8 2 -20 -3 -26 -5
-9 -7 -4 -7 13 0 29 2 32 10 13z m74 -139 c-3 -8 -6 -5 -6 6 -1 11 2 17 5 13
3 -3 4 -12 1 -19z m6590 -355 c-3 -10 -5 -2 -5 17 0 19 2 27 5 18 2 -10 2 -26
0 -35z m-60 -545 c-3 -8 -6 -5 -6 6 -1 11 2 17 5 13 3 -3 4 -12 1 -19z m-5826
-983 c7 -13 3 -12 -10 5 -11 14 -21 30 -21 35 0 11 14 -7 31 -40z m5074 -144
c-3 -6 -16 -16 -28 -22 -21 -11 -21 -10 2 15 23 25 40 29 26 7z m-4984 -98
c13 -16 12 -17 -3 -4 -17 13 -22 21 -14 21 2 0 10 -8 17 -17z m4837 -45 c-8
-12 -21 -24 -29 -26 -8 -3 -3 7 10 22 30 32 39 34 19 4z m-158 -131 c0 -2 -10
-12 -22 -23 l-23 -19 19 23 c18 21 26 27 26 19z m-50 -51 c0 -3 -4 -8 -10 -11
-5 -3 -10 -1 -10 4 0 6 5 11 10 11 6 0 10 -2 10 -4z m90 -59 c0 -2 -10 -12
-22 -23 l-23 -19 19 23 c18 21 26 27 26 19z m-176 -141 c-10 -8 -21 -12 -24
-10 -5 6 21 24 34 24 6 0 1 -6 -10 -14z m-54 -40 c0 -2 -18 -15 -40 -30 -21
-14 -37 -20 -34 -13 7 19 74 58 74 43z m-3790 -82 c0 -2 -9 0 -20 6 -11 6 -20
13 -20 16 0 2 9 0 20 -6 11 -6 20 -13 20 -16z m3475 16 c-3 -5 -12 -10 -18
-10 -7 0 -6 4 3 10 19 12 23 12 15 0z m195 -14 c0 -2 -7 -7 -16 -10 -8 -3 -12
-2 -9 4 6 10 25 14 25 6z m-3525 -76 c3 -6 -1 -7 -9 -4 -18 7 -21 14 -7 14 6
0 13 -4 16 -10z m-10 -30 c3 -6 -1 -7 -9 -4 -18 7 -21 14 -7 14 6 0 13 -4 16
-10z m76 -37 c13 -15 12 -15 -11 -3 -34 17 -36 20 -18 20 9 0 22 -7 29 -17z
m3239 13 c0 -2 -7 -7 -16 -10 -8 -3 -12 -2 -9 4 6 10 25 14 25 6z m-2875 -146
c3 -6 -1 -7 -9 -4 -18 7 -21 14 -7 14 6 0 13 -4 16 -10z m42 -36 c-3 -3 -12
-4 -19 -1 -8 3 -5 6 6 6 11 1 17 -2 13 -5z m1676 -91 c-7 -2 -19 -2 -25 0 -7
3 -2 5 12 5 14 0 19 -2 13 -5z m-1036 -89 c-3 -3 -12 -4 -19 -1 -8 3 -5 6 6 6
11 1 17 -2 13 -5z"/>
<path d="M5558 8363 c7 -3 16 -2 19 1 4 3 -2 6 -13 5 -11 0 -14 -3 -6 -6z"/>
<path d="M7235 7253 c-16 -2 -122 -15 -235 -29 -375 -45 -657 -96 -875 -159
-498 -143 -860 -447 -955 -801 -45 -168 -36 -352 24 -500 114 -281 382 -488
719 -558 83 -17 107 -13 126 23 14 26 2 61 -23 65 -186 35 -318 99 -438 214
-288 274 -337 643 -128 947 206 299 661 524 1171 580 133 14 259 23 259 19 0
-1 -21 -38 -47 -81 -138 -231 -373 -763 -508 -1148 -29 -82 -69 -193 -90 -245
-20 -52 -68 -183 -105 -291 -37 -108 -71 -203 -76 -212 -5 -8 -34 -32 -64 -53
-210 -143 -442 -336 -634 -529 -270 -271 -446 -532 -526 -780 -95 -297 -13
-504 210 -530 67 -8 166 13 231 49 54 30 158 120 221 191 66 74 197 266 263
384 144 260 245 496 453 1066 28 77 60 165 72 195 l20 55 148 78 c81 43 179
93 219 111 90 40 103 52 103 87 0 32 -29 54 -59 44 -10 -3 -96 -48 -191 -100
-96 -52 -175 -95 -177 -95 -1 0 7 24 18 53 12 28 50 133 84 232 35 99 75 214
90 255 15 41 40 111 55 155 16 44 43 116 60 160 17 44 40 103 50 130 21 57 58
147 102 250 61 141 237 491 268 533 l32 43 144 -7 c170 -8 195 -1 225 59 24
47 20 89 -13 124 -19 21 -30 23 -107 22 -47 -1 -99 -4 -116 -6z m-624 -864
c-5 -13 -10 -19 -10 -12 -1 15 10 45 15 40 3 -2 0 -15 -5 -28z m-734 -1775
c-304 -783 -569 -1230 -771 -1298 -45 -16 -51 -15 -85 1 -83 41 -108 174 -62
338 40 147 173 392 302 556 88 112 293 330 406 431 141 126 307 258 311 248 2
-4 -44 -128 -101 -276z"/>
<path d="M4678 6984 c-41 -22 -241 -297 -241 -331 0 -7 -3 -10 -7 -8 -10 6
-149 -231 -230 -395 -153 -306 -358 -827 -466 -1185 -26 -85 -28 -88 -37 -60
-5 18 -10 360 -11 851 -1 806 -1 822 -21 845 -11 13 -24 27 -30 31 -14 11 -64
10 -107 -2 -68 -19 -77 -35 -113 -180 -31 -126 -80 -316 -155 -605 -161 -619
-449 -1615 -515 -1788 -8 -20 -15 -53 -15 -72 0 -30 5 -38 34 -52 32 -15 37
-15 60 1 41 26 51 50 111 266 31 113 81 288 110 390 80 280 114 403 150 540
18 69 40 150 48 180 9 30 34 127 57 215 22 88 45 174 50 190 6 17 35 124 65
240 31 115 60 214 66 220 8 7 9 -238 4 -842 -8 -951 -12 -888 60 -919 47 -19
82 -18 121 6 39 25 43 36 123 305 162 542 299 901 493 1289 129 260 188 341
139 194 -26 -78 -73 -282 -106 -452 -111 -577 -108 -1162 10 -1511 80 -238
217 -381 280 -292 21 30 19 57 -8 97 -97 144 -156 474 -142 805 6 158 36 461
56 583 6 34 8 70 5 79 -4 10 -4 14 0 10 4 -4 22 64 40 150 66 327 149 600 288
955 66 168 62 195 -41 247 -49 24 -87 26 -125 5z"/>
<path d="M7374 2778 l-19 -23 23 19 c12 11 22 21 22 23 0 8 -8 2 -26 -19z"/>
<path d="M3010 2706 c0 -3 15 -15 33 -27 23 -17 28 -18 18 -6 -14 18 -51 42
-51 33z"/>
<path d="M6385 2185 c-16 -8 -23 -14 -15 -14 8 0 26 6 40 14 32 18 15 18 -25
0z"/>
<path d="M6038 2063 c7 -3 16 -2 19 1 4 3 -2 6 -13 5 -11 0 -14 -3 -6 -6z"/>
<path d="M5918 2033 c7 -3 16 -2 19 1 4 3 -2 6 -13 5 -11 0 -14 -3 -6 -6z"/>
<path d="M4310 8390 c-21 -7 -21 -8 -5 -9 11 0 27 4 35 9 18 11 5 11 -30 0z"/>
</g>
</svg>
